<svg xmlns="http://www.w3.org/2000/svg" width="18" height="10" viewBox="0 0 18 10">
  <g>
    <path d="M9 10a9.739 9.739 0 0 1-5.993-2.03L.517 6.033a1.292 1.292 0 0 1 0-2.068l2.489-1.938a9.874 9.874 0 0 1 11.987 0l2.489 1.938a1.292 1.292 0 0 1 0 2.068l-2.489 1.938A9.723 9.723 0 0 1 9 10.001Zm0-8.831a8.5 8.5 0 0 0-5.228 1.747l-2.49 1.937a.185.185 0 0 0 0 .291l2.49 1.938a8.607 8.607 0 0 0 10.472 0l2.489-1.938a.185.185 0 0 0 0-.291l-2.505-1.937A8.52 8.52 0 0 0 9 1.17Z" />
    <path d="M9 9.757a4.759 4.759 0 1 1 4.733-4.759A4.746 4.746 0 0 1 9 9.757Zm0-8.375a3.617 3.617 0 1 0 3.6 3.617A3.607 3.607 0 0 0 9 1.382Z" />
    <path d="M11.599 4.998a2.6 2.6 0 1 1-1.906-2.5 1.274 1.274 0 0 0-.26.772 1.3 1.3 0 0 0 1.3 1.3 1.274 1.274 0 0 0 .772-.26 2.6 2.6 0 0 1 .1.694Z" />
  </g>
</svg>
