<svg xmlns="http://www.w3.org/2000/svg" width="16" height="14" viewBox="0 0 16 14">
  <path fill="currentColor" stroke="none" d="M8 14.001a.508.508 0 0 0 .368-.158l6.464-6.72a4.136 4.136 0 0 0 .872-1.355 4.229 4.229 0 0 0 .3-1.561 4.146 4.146 0 0 0-.288-1.537A4.171 4.171 0 0 0 14.244.792a4.162 4.162 0 0 0-2.256-.784 4.213 4.213 0 0 0-2.312.539 4.182 4.182 0 0 0-1.672 1.7 4.182 4.182 0 0 0-1.672-1.7A4.213 4.213 0 0 0 4.016.001 4.162 4.162 0 0 0 1.76.785 4.172 4.172 0 0 0 .288 2.663 4.146 4.146 0 0 0 0 4.201a4.229 4.229 0 0 0 .3 1.561 4.136 4.136 0 0 0 .872 1.355l6.464 6.72a.508.508 0 0 0 .364.164ZM4.256.989a3.156 3.156 0 0 1 1.624.436 3.3 3.3 0 0 1 1.184 1.176 3.081 3.081 0 0 1 .436 1.6.5.5 0 0 0 .144.357.468.468 0 0 0 .352.151.468.468 0 0 0 .352-.151.5.5 0 0 0 .152-.357 3.105 3.105 0 0 1 .664-1.941 3.149 3.149 0 0 1 1.72-1.149 3.342 3.342 0 0 1 .88-.127 3.187 3.187 0 0 1 1.592.42 3.256 3.256 0 0 1 1.192 1.149 3.162 3.162 0 0 1 .464 1.648 3.186 3.186 0 0 1-.232 1.2 3.294 3.294 0 0 1-.664 1.038L8 12.78 1.9 6.44a3.163 3.163 0 0 1-.676-1.039A3.146 3.146 0 0 1 .992 4.22a3.229 3.229 0 0 1 .272-1.284 3.151 3.151 0 0 1 1.2-1.418A3.219 3.219 0 0 1 4.256.989Z" data-name="Path 732"/>
</svg>
