<svg xmlns="http://www.w3.org/2000/svg" width="24" height="23" viewBox="0 0 24 23">
  <path d="m20.28 6.345-1.772 1.934a1.268 1.268 0 0 0 0 1.682 1.026 1.026 0 0 0 1.541 0L23.681 6a1.268 1.268 0 0 0 0-1.682L20.048.348a1.025 1.025 0 0 0-1.54 0 1.268 1.268 0 0 0 0 1.682l1.772 1.935h-1.742c-2.16 0-4.948 2.948-8.176 6.361-2.676 2.829-6.006 6.35-7.679 6.35H1.089a1.194 1.194 0 0 0 0 2.379h1.594c2.555 0 5.78-3.409 9.194-7.02 2.4-2.536 5.382-5.691 6.66-5.691h1.743Z"/>
  <path d="M19.707 13.09a1.183 1.183 0 1 0-1.673 1.673l1.925 1.925h-1.893c-1.14 0-2.983-1.637-4.62-3.172a1.184 1.184 0 0 0-1.618 1.727c2.637 2.471 4.413 3.811 6.239 3.811h1.893l-1.925 1.925a1.18475873 1.18475873 0 0 0 1.673 1.678l3.945-3.945a1.184 1.184 0 0 0 0-1.674ZM1.183 6.335h1.732c1.384 0 3.416 1.688 5.032 3.158a1.18326508 1.18326508 0 0 0 1.592-1.751C7.049 5.477 4.97 3.967 2.915 3.967H1.183a1.184 1.184 0 0 0 0 2.367Z"/>
</svg>
